<?xml version="1.0" encoding="UTF-8"?>
<svg id="Layer_2" data-name="Layer 2" xmlns="http://www.w3.org/2000/svg" viewBox="0 0 500 500">
  <defs>
    <style>
      .cls-1 {
        fill: #e40d2a;
      }
    </style>
  </defs>
  <g id="icons">
    <path class="cls-1" d="M500,250c0,50.23,0,84.11-1.17,102.8-2.34,45.56-15.19,80.61-40.89,105.14-25.7,24.53-59.58,38.55-105.14,40.89-18.69,1.17-53.74,1.17-102.8,1.17s-84.11,0-102.8-1.17c-45.56-2.34-80.61-15.19-105.14-40.89-24.53-24.53-38.55-59.58-40.89-105.14-1.17-18.69-1.17-53.74-1.17-102.8s0-84.11,1.17-102.8c2.34-45.56,15.19-80.61,40.89-105.14C66.59,17.52,101.64,3.5,147.2,1.17c18.69-1.17,53.74-1.17,102.8-1.17s84.11,0,102.8,1.17c45.56,2.34,80.61,15.19,105.14,40.89,24.53,25.7,38.55,59.58,40.89,105.14,0,18.69,1.17,52.57,1.17,102.8ZM274.53,44.39h-82.94c-8.18,0-18.69,0-31.54,1.17-12.85,0-24.53,1.17-33.88,3.5-9.35,1.17-17.52,3.5-23.36,5.84-10.51,4.67-19.86,10.51-29.21,18.69-8.18,8.18-14.02,17.52-18.69,29.21-2.34,5.84-4.67,14.02-5.84,23.36-1.17,9.35-2.34,19.86-3.5,33.88,0,12.85-1.17,23.36-1.17,31.54v116.82c0,8.18,0,18.69,1.17,31.54,0,12.85,1.17,24.53,3.5,33.88,2.34,9.35,3.5,17.52,5.84,23.36,4.67,10.51,10.51,19.86,18.69,29.21,8.18,8.18,17.52,14.02,29.21,18.69,5.84,2.34,14.02,4.67,23.36,5.84,9.35,1.17,19.86,2.34,33.88,3.5,14.02,1.17,23.36,1.17,31.54,1.17h116.82c8.18,0,18.69,0,31.54-1.17,12.85,0,24.53-1.17,33.88-3.5,9.35-1.17,17.52-3.5,23.36-5.84,10.51-4.67,19.86-10.51,29.21-18.69,8.18-8.18,14.02-17.52,18.69-29.21,2.34-5.84,4.67-14.02,5.84-23.36s2.34-19.86,3.5-33.88c0-12.85,1.17-23.36,1.17-31.54v-116.82c0-8.18,0-18.69-1.17-31.54,0-12.85-1.17-24.53-3.5-33.88-1.17-9.35-3.5-17.52-5.84-23.36-4.67-10.51-10.51-19.86-18.69-29.21-8.18-8.18-17.52-14.02-29.21-18.69-5.84-2.34-14.02-4.67-23.36-5.84-9.35-1.17-19.86-2.34-33.88-3.5-12.85,0-23.36-1.17-31.54-1.17-7.01,0-18.69,0-33.88,0ZM339.95,158.88c24.53,24.53,37.38,54.91,37.38,91.12s-12.85,65.42-37.38,91.12c-24.53,24.53-54.91,37.38-91.12,37.38s-65.42-12.85-91.12-37.38c-24.53-24.53-37.38-54.91-37.38-91.12s12.85-65.42,37.38-91.12c24.53-24.53,54.91-37.38,91.12-37.38s66.59,11.68,91.12,37.38ZM308.41,308.41c16.36-16.36,24.53-36.21,24.53-58.41s-8.18-43.22-24.53-59.58c-16.36-16.36-36.21-24.53-59.58-24.53s-43.22,8.18-59.58,24.53c-16.36,16.36-24.53,36.21-24.53,59.58s8.18,43.22,24.53,58.41c16.36,16.36,36.21,24.53,59.58,24.53,23.36,0,43.22-8.18,59.58-24.53ZM404.21,94.63c5.84,5.84,9.35,12.85,9.35,21.03s-3.5,15.19-9.35,21.03c-5.84,5.84-12.85,9.35-21.03,9.35s-15.19-3.5-21.03-9.35-9.35-12.85-9.35-21.03,3.5-15.19,9.35-21.03,12.85-9.35,21.03-9.35,15.19,3.5,21.03,9.35Z"/>
  </g>
</svg>
