<?xml version="1.0" encoding="UTF-8"?>
<svg id="Layer_1" xmlns="http://www.w3.org/2000/svg" version="1.1" viewBox="0 0 340 140">
  <!-- Generator: Adobe Illustrator 29.8.3, SVG Export Plug-In . SVG Version: 2.1.1 Build 3)  -->
  <defs>
    <style>
      .st0 {
        fill: #e40d2a;
      }
    </style>
  </defs>
  <path class="st0" d="M285.2,87c-1,28.5-4.4,34.4-9,34.4s-9.5-6.3-9.5-51.8,2.1-48.9,6.9-51.2c1.9-.9,4.6-.9,6.3.5l4,20.1h4.6V14.8c-2.7-2.6-7.1-4.1-12.1-4.1-18,0-24.3,24.8-24.3,59.6s7,57.9,22.9,57.9,15.6-28.6,15.6-37.9l-5.5-3.4ZM89.1,90.4l-5.6-3.4c-1.1,28.5-4.4,34.4-9.1,34.4s-9.6-6.3-9.6-51.8,2.2-48.9,7-51.2c1.9-.9,4.7-.9,6.4.5l4.1,20.1h4.7V14.8c-2.7-2.6-7.2-4.1-12.3-4.1-18.3,0-24.7,24.8-24.7,59.6s7.1,57.9,23.3,57.9,15.8-28.6,15.8-37.9ZM32,18.4c1.3,0,2.7.5,3.8,1.9l3.9,18.8h4.7V15.6c-2.9-2.9-7.7-4.6-12-4.6-11,0-20.7,8.7-20.7,21.1,0,19.1,23.8,56.5,23.8,74.8s-.6,11-6.3,13.1c-1.6.6-3.6.3-5.9-.7l-3.9-21.8h-4.7v27.6c3.2,2.7,8,4.2,14,4.2,12.8,0,20.5-12.8,20.6-24.5,0-25.9-23.8-56-23.8-76.8,0-6.4,3.1-9.5,6.3-9.5h0ZM210.2,53.3h-4.4l-1.9,10.3h-8.4V18.6h8.6l3.5,17.6h4.7V11.7h-39.6v4l8.9,3.3v102.1l-3.8,1.4-5.2-2.3-11.5-50.8c8.5-3.8,10.9-15.1,10.9-27.4s-4.6-28.6-18.3-30.2c-.9-.1-1.8-.1-2.8-.1h-24.4v4l8.9,3.3v102.2l-3.3,1.2-3.4-1.3-14.9-109.5h-13.1l-10.8,108.7-6.5,3.2v4h19v-4l-5.8-2.8,2.6-24.4h12.3l3.3,24.6-7,2.7v4h21.3c0,0,26.6,0,26.6,0v-4l-1.9-.7-4.4-1.7v-45.8l4.4,19,7.7,33.2h40.4v-4l-6.3-2.4v-50.7h8.3l2.1,9.9h4.4v-27.1ZM99.7,89.4l4.6-44.3.7,5.2,5.3,39.2h-10.6ZM153.7,64.7c-1.1,1-2.6,1.7-4.4,1.8V18.6c1.8,0,3.3.6,4.4,1.7,4.4,4.2,4.4,15.1,4.4,22.6s0,17.9-4.4,21.8ZM319.9,120.6h-8.6v-50.2h7.7l2,9.9h4.3v-27.1h-4.3l-1.9,10.3h-7.9V18.5h.2s8.5,0,8.5,0l3.5,17.6h4.6V11.6h-36.4v4l5.9,2.2v103.4l-5.9,2.2v4h36.4v-27.9h-4.6l-3.6,21ZM237.1,11.6h-12.7l-10.6,108.7-6.3,3.2v4h18.5v-4l-5.6-2.8,2.5-24.4h11.9l3.2,24.6-6.9,2.7v4h26.6v-4l-6.2-2.4-14.5-109.5ZM223.6,89.4l4.5-44.3.7,5.2,5.2,39.2h-10.4Z"/>
</svg>
