<?xml version="1.0" encoding="UTF-8"?>
<svg id="Layer_2" data-name="Layer 2" xmlns="http://www.w3.org/2000/svg" viewBox="0 0 433.35 500">
  <defs>
    <style>
      .cls-1 {
        fill: #e40d2a;
      }
    </style>
  </defs>
  <g id="icons">
    <path class="cls-1" d="M379.39,106.93c-3.37-1.74-6.66-3.66-9.84-5.73-9.26-6.12-17.74-13.33-25.28-21.48-18.85-21.57-25.89-43.46-28.49-58.78h.1c-2.17-12.72-1.27-20.95-1.14-20.95h-85.87v332.05c0,4.46,0,8.86-.19,13.22,0,.54-.05,1.04-.08,1.62,0,.24,0,.49-.05.74v.19c-1.84,24.19-15.59,45.89-36.69,57.87-10.83,6.16-23.07,9.39-35.53,9.37-40.01,0-72.43-32.62-72.43-72.91s32.43-72.91,72.43-72.91c7.57,0,15.1,1.18,22.3,3.53l.1-87.43c-44.19-5.71-88.76,7.33-122.91,35.96-14.8,12.86-27.24,28.2-36.77,45.34-3.62,6.25-17.3,31.36-18.96,72.12-1.04,23.13,5.91,47.1,9.22,57.01v.21c2.08,5.83,10.16,25.74,23.31,42.52,10.61,13.46,23.14,25.28,37.2,35.09v-.21l.21.21c41.57,28.25,87.66,26.39,87.66,26.39,7.98-.32,34.71,0,65.06-14.38,33.66-15.95,52.83-39.71,52.83-39.71,12.24-14.2,21.98-30.37,28.79-47.84,7.77-20.43,10.36-44.92,10.36-54.72v-176.16c1.04.62,14.92,9.8,14.92,9.8,0,0,19.99,12.81,51.17,21.16,22.37,5.94,52.52,7.19,52.52,7.19v-85.25c-10.56,1.15-32.01-2.19-53.97-13.13Z"/>
  </g>
</svg>
