<?xml version="1.0" encoding="UTF-8"?>
<svg id="Layer_2" xmlns="http://www.w3.org/2000/svg" version="1.1" viewBox="0 0 503 500">
  <!-- Generator: Adobe Illustrator 29.8.3, SVG Export Plug-In . SVG Version: 2.1.1 Build 3)  -->
  <defs>
    <style>
      .st0 {
        fill: #e40d2a;
      }
    </style>
  </defs>
  <path class="st0" d="M252.3,78.2s-153.4,0-191.9,10c-20.6,5.8-37.6,22.7-43.4,43.7-10,38.5-10,118.2-10,118.2,0,0,0,80,10,117.9,5.8,20.9,22.4,37.6,43.4,43.4,38.8,10.3,191.9,10.3,191.9,10.3,0,0,153.7,0,192.2-10,20.9-5.8,37.6-22.1,43.1-43.4,10.3-38.2,10.3-117.9,10.3-117.9,0,0,.3-80-10.3-118.6-5.5-20.9-22.1-37.6-43.1-43.1-38.5-10.6-192.2-10.6-192.2-10.6ZM203.5,176.5l127.6,73.7-127.6,73.4v-147h0Z"/>
</svg>